<?xml version="1.0" encoding="UTF-8"?>
<!-- Generated by Pixelmator Pro 3.4 -->
<svg width="512" height="135" viewBox="0 0 512 135" xmlns="http://www.w3.org/2000/svg">
    <path id="Trazado" fill="#e60f05" stroke="none" d="M 9.9 2.399994 L 123.599998 2.399994 C 128.199997 2.399994 132 6.5 132 11.5 L 132 123.800003 C 132 128.799988 128.300003 132.899994 123.599998 132.899994 L 9.9 132.899994 C 5.3 132.899994 1.5 128.799988 1.5 123.800003 L 1.5 11.5 C 1.5 6.5 5.3 2.399994 9.9 2.399994 Z"/>
    <g id="Agrupar">
        <path id="path1" fill="#ffffff" stroke="none" d="M 93.599998 85.800003 C 92.5 84.700005 91.199997 84 89.699997 83.700005 C 88.199997 83.400002 86.699997 83.599998 85.300003 84.099998 C 83.900002 84.700005 82.699997 85.599998 81.900002 86.900002 C 81.099998 88.099998 80.599998 89.599998 80.599998 91.099998 C 80.599998 92.099998 80.800003 93.099998 81.199997 94 C 81.599998 94.900002 82.099998 95.800003 82.800003 96.5 C 83.5 97.200005 84.300003 97.800003 85.300003 98.099998 C 86.199997 98.5 87.199997 98.700005 88.199997 98.700005 C 89.699997 98.700005 91.199997 98.300003 92.400002 97.400002 C 93.599998 96.599998 94.599998 95.400002 95.199997 94 C 95.800003 92.599998 95.900002 91.099998 95.599998 89.599998 C 95.400002 88.200005 94.699997 86.900002 93.599998 85.800003 Z M 88.300003 94.900002 C 86.300003 94.900002 84.599998 93.200005 84.599998 91.200005 C 84.599998 89.200005 86.300003 87.5 88.300003 87.5 C 90.300003 87.5 92.099998 89.200005 92.099998 91.200005 C 92.099998 93.200005 90.300003 94.900002 88.300003 94.900002 Z"/>
        <path id="path2" fill="#ffffff" stroke="none" d="M 107 81.400002 L 104.800003 81.400002 C 102.800003 81.400002 101.800003 80.5 100.900002 79.5 C 99.300003 77.700005 97.400002 76.300003 95.199997 75.300003 C 93 74.300003 90.699997 73.900002 88.300003 73.900002 L 27.1 73.900002 C 26.9 73.900002 26.700001 74 26.5 74.099998 C 26.299999 74.200005 26.200001 74.300003 26 74.400002 C 25.9 74.5 25.799999 74.700005 25.700001 74.900002 C 25.6 75.099998 25.5 75.300003 25.5 75.5 L 25.5 78.300003 L 25.5 85.599998 C 25.5 86.700005 24.6 86.300003 24.6 88.099998 L 24.6 89.099998 C 24.6 90.300003 25.299999 91 26.4 91 L 28.4 91 C 28.700001 91 29.4 90.800003 29.4 90 C 29.4 83.800003 34.5 78.700005 40.5 78.700005 C 46.5 78.700005 51.799999 83.5 51.799999 90 C 51.799999 90.599998 52.200001 90.900002 52.700001 90.900002 L 76 90.900002 C 76.599998 90.900002 77 90.5 77 89.900002 C 77 84 81.699997 78.599998 88.300003 78.599998 C 94.5 78.599998 99.5 83.700005 99.5 89.900002 C 99.5 90.300003 99.699997 90.900002 100.5 90.900002 L 107.099998 90.900002 C 108.099998 90.900002 109 89.900002 109 89 L 109 83.400002 C 108.800003 82.099998 108.199997 81.400002 107 81.400002 Z"/>
        <path id="path3" fill="#ffffff" stroke="none" d="M 45.900002 85.800003 C 44.799999 84.700005 43.5 84 42 83.700005 C 40.5 83.400002 39 83.599998 37.599998 84.099998 C 36.200001 84.700005 35 85.599998 34.200001 86.900002 C 33.400002 88.099998 32.900002 89.599998 32.900002 91.099998 C 32.900002 92.099998 33.099998 93.099998 33.5 94 C 33.900002 94.900002 34.400002 95.800003 35.099998 96.5 C 35.799999 97.200005 36.599998 97.800003 37.599998 98.099998 C 38.5 98.5 39.5 98.700005 40.5 98.700005 C 42 98.700005 43.5 98.300003 44.700001 97.400002 C 45.900002 96.599998 46.900002 95.400002 47.5 94 C 48.099998 92.599998 48.200001 91.099998 47.900002 89.599998 C 47.700001 88.200005 47 86.900002 45.900002 85.800003 Z M 40.599998 94.900002 C 38.599998 94.900002 36.900002 93.200005 36.900002 91.200005 C 36.900002 89.200005 38.599998 87.5 40.599998 87.5 C 42.599998 87.5 44.400002 89.200005 44.400002 91.200005 C 44.400002 93.200005 42.599998 94.900002 40.599998 94.900002 Z"/>
        <path id="path4" fill="#ffffff" stroke="none" d="M 25.9 68.200005 C 26 68.400002 26.200001 68.5 26.4 68.599998 C 26.6 68.700005 26.799999 68.700005 27 68.700005 L 88.199997 68.700005 C 93.5 68.599998 98.699997 70.700005 102.5 74.300003 C 103.099998 74.900002 103.900002 76.200005 105.099998 76.200005 L 106.300003 76.200005 C 106.900002 76.200005 107.099998 75.900002 107.099998 75.200005 L 107.099998 66.5 C 107.099998 54.300003 99.699997 44.5 87.099998 39.699997 C 74 34.5 42.799999 36.5 30.200001 39.800003 C 28.200001 40.300003 25.5 41.300003 25.5 45.099998 L 25.5 65.099998 L 25.6 67 C 25.5 67.5 25.700001 67.900002 25.9 68.200005 Z M 76.699997 47.199997 C 76.699997 46.599998 76.900002 46.199997 77.699997 46.199997 L 81.599998 46.199997 C 91 46.199997 97.400002 52.599998 100.900002 62.099998 C 101.099998 62.599998 101 63.400002 100 63.400002 L 77.699997 63.400002 C 77.099998 63.400002 76.699997 62.800003 76.699997 62.400002 L 76.699997 47.199997 Z M 53.900002 47.199997 C 53.900002 47.099998 53.900002 46.900002 54 46.800003 C 54 46.699997 54.099998 46.599998 54.200001 46.5 C 54.299999 46.400002 54.400002 46.300003 54.5 46.300003 C 54.599998 46.300003 54.700001 46.199997 54.900002 46.199997 L 71.400002 46.199997 C 72 46.199997 72.400002 46.599998 72.400002 47.199997 L 72.400002 62.300003 C 72.400002 62.800003 72 63.300003 71.400002 63.300003 L 54.799999 63.300003 C 54.299999 63.300003 53.799999 63.099998 53.799999 62.300003 L 53.799999 47.199997 Z M 30.799999 47.199997 C 30.799999 47 30.799999 46.199997 31.700001 46.199997 L 48.599998 46.199997 C 49.200001 46.199997 49.599998 46.599998 49.599998 47.099998 L 49.599998 62.400002 C 49.599998 62.699997 49.400002 63.300003 48.599998 63.300003 L 31.700001 63.300003 C 31 63.300003 30.799999 62.699997 30.799999 62.300003 L 30.799999 47.199997 Z"/>
    </g>
    <path id="path5" fill="#1b1a21" stroke="none" d="M 166.199997 37.800003 C 166.100006 37.800003 166 37.800003 165.899994 37.900002 C 165.800003 37.900002 165.699997 38 165.699997 38.099998 C 165.600006 38.199997 165.600006 38.300003 165.5 38.300003 C 165.5 38.400002 165.399994 38.5 165.399994 38.599998 L 165.399994 83.200005 C 165.399994 88.599998 166.899994 92.5 170 94.900002 C 173.300003 97.599998 178.600006 98.200005 184.699997 96.800003 C 184.899994 96.800003 185 96.700005 185.100006 96.5 C 185.199997 96.400002 185.300003 96.200005 185.300003 96 L 185.199997 88.400002 C 185.199997 88.300003 185.199997 88.200005 185.100006 88.099998 C 185.100006 88 185 87.900002 184.899994 87.800003 C 184.800003 87.700005 184.699997 87.700005 184.600006 87.700005 C 184.5 87.700005 184.399994 87.700005 184.300003 87.700005 C 181.899994 88.200005 180.100006 87.900002 178.800003 86.900002 C 177.399994 85.800003 176.800003 83.800003 176.800003 80.900002 L 176.800003 38.599998 C 176.800003 38.400002 176.699997 38.199997 176.600006 38.099998 C 176.5 38 176.300003 37.900002 176.100006 37.900002 L 166.199997 37.900002 Z"/>
    <path id="path6" fill="#1b1a21" stroke="none" d="M 209.300003 50.599998 C 202.699997 50.599998 197.300003 52.900002 193.199997 57.400002 C 189.100006 61.900002 187 67.5 187 74.099998 C 187 80.900002 189.100006 86.5 193.199997 91 C 197.300003 95.400002 202.800003 97.700005 209.5 97.700005 C 214.600006 97.700005 219.100006 96.300003 222.899994 93.5 C 226.600006 90.800003 229.399994 86.900002 230.699997 82.400002 C 230.699997 82.300003 230.699997 82.200005 230.699997 82.099998 C 230.699997 82 230.600006 81.900002 230.600006 81.800003 C 230.5 81.700005 230.5 81.599998 230.399994 81.599998 C 230.300003 81.599998 230.199997 81.5 230.100006 81.5 L 220 81.5 C 219.899994 81.5 219.699997 81.5 219.600006 81.599998 C 219.5 81.700005 219.399994 81.800003 219.399994 81.900002 C 218.699997 83.700005 217.399994 85.200005 215.699997 86.099998 C 213.899994 87.200005 211.899994 87.700005 209.800003 87.700005 C 206.5 87.700005 203.899994 86.800003 201.899994 84.800003 C 200 82.900002 198.800003 80.5 198.5 77.900002 L 198.5 77.700005 L 231 77.700005 C 231.199997 77.700005 231.300003 77.599998 231.5 77.5 C 231.600006 77.400002 231.699997 77.200005 231.699997 77 L 231.800003 73.900002 C 231.800003 67.300003 229.699997 61.699997 225.699997 57.300003 C 221.199997 52.800003 215.899994 50.599998 209.300003 50.599998 Z M 220 68.900002 L 198.399994 68.900002 L 198.5 68.700005 C 199 66.400002 200.199997 64.300003 202 62.699997 C 204 60.900002 206.399994 60.099998 209.399994 60.099998 C 212.399994 60.099998 214.899994 61 216.800003 62.699997 C 218.5 64.300003 219.699997 66.400002 220.100006 68.700005 L 220 68.900002 Z"/>
    <path id="path7" fill="#1b1a21" stroke="none" d="M 442.700012 86.700005 C 435.799988 86.700005 430.299988 81.099998 430.299988 74.300003 C 430.299988 67.5 435.899994 61.900002 442.700012 61.900002 C 449.5 61.900002 455.100006 67.5 455.100006 74.300003 C 455.100006 81.099998 449.5 86.700005 442.700012 86.700005 Z M 442.700012 50.900002 C 433.200012 50.900002 424.899994 56.5 421.100006 65.300003 C 419.299988 69.5 418.899994 74.200005 419.799988 78.800003 C 420.700012 83.300003 422.899994 87.400002 426.200012 90.700005 C 429.5 94 433.600006 96.099998 438.100006 97.099998 C 442.600006 98 447.299988 97.5 451.600006 95.800003 C 455.899994 94 459.5 91 462.100006 87.200005 C 464.600006 83.300003 466 78.900002 466 74.300003 C 465.899994 61.5 455.799988 50.900002 442.700012 50.900002 Z M 506.600006 55.800003 C 503.700012 52.5 499.5 50.900002 494.200012 50.900002 C 490.899994 50.900002 487.899994 51.599998 485.5 52.900002 C 484.200012 53.699997 483 54.699997 481.899994 55.800003 L 481.600006 56.099998 L 481.600006 52.5 C 481.600006 52.400002 481.5 52.199997 481.399994 52.099998 C 481.299988 52 481.100006 51.900002 480.899994 51.900002 L 471.700012 51.900002 C 471.600006 51.900002 471.399994 52 471.299988 52.099998 C 471.200012 52.199997 471.100006 52.400002 471.100006 52.5 L 471.100006 95.800003 C 471.100006 95.900002 471.100006 96 471.200012 96.099998 C 471.200012 96.200005 471.299988 96.300003 471.399994 96.300003 C 471.5 96.400002 471.700012 96.5 471.799988 96.5 L 481.799988 96.5 C 481.899994 96.5 482.200012 96.400002 482.200012 96.300003 C 482.399994 96.200005 482.399994 96 482.399994 95.800003 L 482.399994 70.700005 C 482.399994 67.700005 483.299988 65.099998 484.899994 63.400002 C 486.600006 61.599998 488.899994 60.699997 491.899994 60.699997 C 494.600006 60.699997 496.600006 61.5 497.899994 63.099998 C 499.200012 64.700005 499.899994 67 499.899994 69.900002 L 499.899994 95.800003 C 499.899994 96 499.899994 96.200005 500 96.300003 C 500.200012 96.400002 500.399994 96.5 500.600006 96.5 L 510.399994 96.5 C 510.600006 96.5 510.799988 96.400002 510.899994 96.300003 C 511 96.200005 511 96.200005 511.100006 96.099998 C 511.100006 96 511.200012 95.900002 511.200012 95.800003 L 511.200012 68.599998 C 511 63.300003 509.5 59 506.600006 55.800003 Z M 403.399994 73.400002 C 403.399994 80.5 398.799988 85.800003 392 85.800003 C 385.399994 85.800003 380.600006 80.700005 380.600006 73.400002 C 380.600006 66.5 384.700012 61 392 61 C 399 61.099998 403.399994 66.300003 403.399994 73.400002 Z M 413.5 51.900002 L 404.299988 51.900002 C 404.200012 51.900002 404.100006 51.900002 404 52 C 403.899994 52 403.799988 52.099998 403.799988 52.199997 C 403.700012 52.300003 403.600006 52.5 403.600006 52.599998 L 403.600006 56.699997 L 403.299988 56.400002 C 400.200012 52.800003 395.700012 51 389.899994 51 C 377.299988 51 369.299988 60.800003 369.299988 73.5 C 369.299988 79.800003 371.200012 85.200005 374.899994 89.400002 C 378.600006 93.700005 383.700012 95.900002 389.899994 95.900002 C 395.299988 95.900002 399.600006 94.200005 402.600006 90.900002 L 402.899994 90.5 L 402.899994 95.200005 C 402.899994 101.099998 398.100006 105.700005 392.600006 105.700005 C 387 105.700005 384.299988 102.400002 383 100 C 382.700012 99.5 382.600006 99.400002 382.299988 99.5 C 381.299988 100 373.700012 104 373.299988 104.200005 C 373.100006 104.300003 373.100006 104.599998 373.200012 104.800003 C 376.299988 111.700005 383.200012 116.099998 392.700012 116.099998 C 404.600006 116.099998 414.200012 107.700005 414.200012 93.800003 L 414.200012 52.5 C 414.200012 52.400002 414.200012 52.199997 414 52.099998 C 413.799988 52 413.700012 51.900002 413.5 51.900002 Z M 353.200012 74.200005 C 353.200012 81.800003 349 87.400002 341.700012 87.400002 C 334.399994 87.400002 330.200012 81.5 330.200012 74.200005 C 330.200012 67.099998 334.299988 61.099998 341.700012 61.099998 C 348.799988 61.099998 353.200012 66.400002 353.200012 74.200005 Z M 363.399994 52 L 354.200012 52 C 354.100006 52 353.899994 52.099998 353.700012 52.199997 C 353.600006 52.300003 353.600006 52.5 353.600006 52.599998 L 353.600006 56.699997 L 353.200012 56.400002 C 350.200012 52.800003 345.600006 51 339.600006 51 C 326.700012 51 319.100006 61 319.100006 74.200005 C 319.100006 87.400002 326.700012 97.5 339.600006 97.5 C 345.5 97.5 350.200012 95.700005 353.200012 92.099998 L 353.600006 91.700005 L 353.600006 95.800003 C 353.600006 96 353.700012 96.099998 353.700012 96.300003 C 353.899994 96.400002 354.100006 96.5 354.200012 96.5 L 363.399994 96.5 C 363.600006 96.5 363.799988 96.400002 363.799988 96.300003 C 364 96.200005 364 96 364 95.800003 L 364 52.599998 C 364 52.5 364 52.300003 363.799988 52.199997 C 363.700012 52.199997 363.600006 52 363.399994 52 Z M 319.5 52.5 C 319.5 52.400002 319.399994 52.400002 319.399994 52.199997 C 319.299988 52.099998 319.200012 52 319.100006 52 C 319 51.900002 318.899994 51.900002 318.799988 51.900002 L 308.700012 51.900002 C 308.600006 51.900002 308.5 51.900002 308.399994 52 C 308.200012 52.099998 308.200012 52.199997 308.100006 52.400002 L 299.200012 80.900002 L 290.200012 52.5 C 290.100006 52.300003 290.100006 52.199997 289.899994 52.099998 C 289.799988 52.099998 289.700012 52 289.5 52 L 280 52 C 279.799988 52 279.700012 52.099998 279.600006 52.099998 C 279.5 52.199997 279.399994 52.300003 279.399994 52.5 L 270.100006 81.300003 L 261 52.400002 C 261 52.199997 260.899994 52.099998 260.799988 52 C 260.700012 52 260.5 51.900002 260.399994 51.900002 L 250.100006 51.900002 C 250 51.900002 249.899994 51.900002 249.699997 52 C 249.600006 52 249.600006 52.099998 249.600006 52.199997 C 249.5 52.300003 249.5 52.400002 249.5 52.5 L 249.5 52.900002 L 264.600006 96.099998 C 264.600006 96.200005 264.700012 96.300003 264.799988 96.400002 C 265 96.5 265.100006 96.5 265.200012 96.5 L 274.399994 96.5 C 274.5 96.5 274.5 96.5 274.600006 96.5 C 274.700012 96.5 274.700012 96.400002 274.799988 96.400002 C 274.899994 96.400002 274.899994 96.300003 274.899994 96.300003 C 274.899994 96.300003 275 96.200005 275 96.099998 L 284.399994 67.900002 L 293.700012 96 C 293.700012 96.099998 293.799988 96.300003 293.899994 96.400002 C 294 96.400002 294.200012 96.5 294.299988 96.5 L 303.600006 96.5 C 303.799988 96.5 304 96.400002 304 96.400002 C 304.100006 96.300003 304.200012 96.200005 304.299988 96 L 319.5 52.900002 L 319.5 52.5 Z"/>
</svg>
