<?xml version="1.0" encoding="UTF-8"?>
<!-- Generated by Pixelmator Pro 3.3.13 -->
<svg width="600" height="188" viewBox="0 0 600 188" xmlns="http://www.w3.org/2000/svg">
    <path id="Trazado" fill="#fd1015" stroke="none" d="M 187.199997 94 C 187.199997 145.638611 145.293854 187.5 93.599998 187.5 C 41.906147 187.5 0 145.638611 0 94 C 0 42.361389 41.906147 0.5 93.599998 0.5 C 145.293854 0.5 187.199997 42.361389 187.199997 94 Z"/>
    <path id="path1" fill="#ffffff" stroke="none" d="M 44 117.799988 C 43.900002 118.299988 43.5 118.799988 42.900002 118.799988 C 42.900002 118.799988 42.900002 118.799988 42.900002 118.799988 L 39.5 118.799988 C 38.900002 118.799988 38.400002 118.299988 38.400002 117.700012 L 38.400002 115.399994 C 38.400002 114.799988 38.900002 114.299988 39.5 114.299988 L 39.5 99.700012 C 39.5 99.100006 40 98.600006 40.599998 98.600006 L 127.5 98.600006 C 133.5 98.600006 138.899994 101.200012 142.699997 105.399994 C 143 105.700012 143.300003 106.200012 143.800003 106.700012 C 144.199997 107.299988 144.899994 107.600006 145.600006 107.600006 L 146.800003 107.600006 C 147.600006 107.600006 148.800003 107.600006 150.100006 107.600006 C 151.300003 107.600006 152.300003 108.600006 152.300003 109.899994 L 152.300003 116.700012 C 152.300003 117.899994 151.300003 119 150 119 L 142.100006 119 C 142.100006 119 142.100006 119 142.100006 119 C 141.5 119 141 118.5 141 117.899994 C 140.399994 111 134.600006 105.5 127.5 105.5 C 120.399994 105.5 114.600006 111 114 117.899994 C 114 118.5 113.5 119 112.899994 119 C 112.899994 119 112.899994 119 112.899994 119 L 72.300003 119 C 71.699997 119 71.199997 118.5 71.199997 117.899994 L 71.199997 117.899994 C 70.599998 111 64.800003 105.5 57.699997 105.5 C 50.599998 105.5 44.799999 111 44.200001 117.899994 C 44.200001 117.899994 44.200001 117.899994 44.200001 117.899994 C 44 117.700012 44 117.799988 44 117.799988 Z M 150 101.899994 C 150 102.5 149.5 103 148.899994 103 L 147.100006 103 C 146.800003 103 146.5 102.899994 146.300003 102.600006 C 145.600006 101.799988 145 101.100006 144.5 100.700012 C 140.100006 96.5 134.100006 93.899994 127.5 93.899994 L 40.599998 93.899994 C 40 93.899994 39.5 93.399994 39.5 92.799988 L 39.5 66.600006 C 39.5 61.5 43.200001 57.299988 48.199997 56.600006 C 63.300003 54.5 77.599998 53.399994 91 53.399994 C 114.899994 53.399994 124.199997 55.299988 133.100006 60.200012 C 138.600006 63.200012 143.699997 70.299988 148.600006 81.700012 C 149.5 83.799988 150 86.100006 150 88.399994 L 150 101.899994 Z M 39.5 95.100006 L 39.5 95.100006 L 39.5 97.399994 L 39.5 97.399994 L 39.5 95.100006 Z M 46.199997 65.799988 C 45.599998 65.799988 45.099998 66.299988 45.099998 66.899994 L 45.099998 83.799988 C 45.099998 84.399994 45.599998 84.899994 46.199997 84.899994 L 63.099998 84.899994 C 63.699997 84.899994 64.199997 84.399994 64.199997 83.799988 L 64.199997 67 C 64.199997 66.399994 63.699997 65.899994 63.099998 65.899994 L 46.199997 65.899994 Z M 93.599998 65.799988 C 93 65.799988 92.5 66.299988 92.5 66.899994 L 92.5 83.799988 C 92.5 84.399994 93 84.899994 93.599998 84.899994 L 110.5 84.899994 C 111.100006 84.899994 111.600006 84.399994 111.600006 83.799988 L 111.600006 67 C 111.600006 66.399994 111.100006 65.899994 110.5 65.899994 L 93.599998 65.899994 Z M 69.900002 65.799988 C 69.300003 65.799988 68.800003 66.299988 68.800003 66.899994 L 68.800003 83.799988 C 68.800003 84.399994 69.300003 84.899994 69.900002 84.899994 L 86.800003 84.899994 C 87.400002 84.899994 87.900002 84.399994 87.900002 83.799988 L 87.900002 67 C 87.900002 66.399994 87.400002 65.899994 86.800003 65.899994 L 69.900002 65.899994 Z M 117.300003 65.799988 C 116.699997 65.799988 116.199997 66.299988 116.199997 66.899994 L 116.199997 83.799988 C 116.199997 84.399994 116.699997 84.899994 117.300003 84.899994 L 143.300003 84.899994 C 143.399994 84.899994 143.600006 84.899994 143.699997 84.799988 C 144.300003 84.600006 144.600006 83.899994 144.300003 83.299988 C 143.100006 80.100006 141.600006 77.100006 140 74.399994 C 139.800003 74 139.5 73.600006 139.300003 73.200012 C 136.899994 68.600006 132.199997 65.700012 126.899994 65.700012 L 117.300003 65.700012 Z M 57.5 127.799988 C 52.5 127.799988 48.5 123.799988 48.5 118.799988 C 48.5 113.799988 52.5 109.799988 57.5 109.799988 C 62.5 109.799988 66.5 113.799988 66.5 118.799988 C 66.5 123.799988 62.5 127.799988 57.5 127.799988 Z M 57.5 123.299988 C 60 123.299988 62 121.299988 62 118.799988 C 62 116.299988 60 114.299988 57.5 114.299988 C 55 114.299988 53 116.299988 53 118.799988 C 53 121.299988 55 123.299988 57.5 123.299988 Z M 127.5 127.799988 C 122.5 127.799988 118.5 123.799988 118.5 118.799988 C 118.5 113.799988 122.5 109.799988 127.5 109.799988 C 132.5 109.799988 136.5 113.799988 136.5 118.799988 C 136.5 123.799988 132.399994 127.799988 127.5 127.799988 Z M 127.5 123.299988 C 130 123.299988 132 121.299988 132 118.799988 C 132 116.299988 130 114.299988 127.5 114.299988 C 125 114.299988 123 116.299988 123 118.799988 C 123 121.299988 125 123.299988 127.5 123.299988 Z"/>
    <path id="logo-font" fill="#000000" stroke="none" d="M 245.899994 90.5 L 270.399994 90.5 C 268.299988 85.799988 263.600006 82.600006 258.100006 82.600006 C 252.700012 82.600006 248 85.899994 245.899994 90.5 Z M 282.899994 100.799988 C 282.600006 101.299988 282.100006 101.600006 281.5 101.600006 L 245.799988 101.600006 C 247.899994 106.299988 252.600006 109.5 258.100006 109.5 C 260.700012 109.5 263.200012 108.799988 265.200012 107.5 C 265.700012 107.200012 266.200012 106.799988 266.899994 106.200012 C 267.5 105.700012 268.200012 105.5 268.899994 105.700012 L 278.200012 107.600006 C 279.100006 107.799988 279.600006 108.600006 279.399994 109.5 C 279.399994 109.700012 279.299988 109.899994 279.200012 110 C 279.100006 110.100006 279 110.299988 278.899994 110.399994 C 276.600006 113.799988 273.5 116.600006 269.899994 118.5 C 266.299988 120.399994 262.299988 121.5 258 121.5 C 244 121.5 232.699997 110.200012 232.699997 96.200012 C 232.699997 82.200012 244 70.899994 258 70.899994 C 272 70.899994 283.299988 82.200012 283.299988 96.200012 C 283.299988 97.799988 283.100006 99.399994 282.899994 100.899994 L 282.899994 100.899994 Z M 215.399994 118.100006 L 215.399994 52.299988 C 215.399994 51.5 215.899994 50.899994 216.699997 50.700012 L 225.300003 48.899994 C 226.199997 48.700012 227.100006 49.299988 227.199997 50.200012 C 227.199997 50.299988 227.199997 50.399994 227.199997 50.5 L 227.199997 118 C 227.199997 118.899994 226.5 119.600006 225.600006 119.600006 L 217 119.600006 C 216.199997 119.799988 215.399994 119.100006 215.399994 118.100006 Z M 333.399994 119.799988 L 323.899994 119.799988 C 323.200012 119.799988 322.600006 119.399994 322.299988 118.700012 L 307.200012 74.5 C 306.899994 73.600006 307.399994 72.700012 308.200012 72.399994 C 308.399994 72.299988 308.600006 72.299988 308.700012 72.299988 L 317.100006 72.299988 C 317.799988 72.299988 318.399994 72.700012 318.700012 73.399994 L 327.899994 100.200012 C 328 100.600006 328.5 100.899994 328.899994 100.700012 C 329.100006 100.600006 329.299988 100.399994 329.399994 100.200012 L 338.600006 73.399994 C 338.799988 72.700012 339.5 72.299988 340.200012 72.299988 L 349.700012 72.299988 C 350.399994 72.299988 351 72.700012 351.299988 73.399994 L 360.5 100.200012 C 360.600006 100.600006 361.100006 100.899994 361.5 100.700012 C 361.700012 100.600006 361.899994 100.399994 362 100.200012 L 371.200012 73.399994 C 371.399994 72.700012 372.100006 72.299988 372.799988 72.299988 L 381.200012 72.299988 C 382.100006 72.299988 382.799988 73 382.799988 73.899994 C 382.799988 74.100006 382.799988 74.299988 382.700012 74.399994 L 367.600006 118.600006 C 367.399994 119.299988 366.700012 119.700012 366 119.700012 L 356.5 119.700012 C 355.799988 119.700012 355.200012 119.299988 354.899994 118.600006 L 345.700012 91.799988 C 345.600006 91.399994 345.100006 91.100006 344.700012 91.299988 C 344.5 91.399994 344.299988 91.600006 344.200012 91.799988 L 335 118.600006 C 334.700012 119.299988 334.100006 119.799988 333.399994 119.799988 Z M 422.700012 117 C 418.600006 119.799988 413.700012 121.399994 408.5 121.399994 C 394.5 121.399994 383.200012 110.100006 383.200012 96.100006 C 383.200012 82.100006 394.5 70.799988 408.5 70.799988 C 413.799988 70.799988 418.700012 72.399994 422.700012 75.200012 L 422.700012 74 C 422.700012 73.100006 423.399994 72.399994 424.299988 72.399994 L 433 72.399994 C 433.899994 72.399994 434.600006 73.100006 434.600006 74 L 434.600006 118.299988 C 434.600006 119.200012 433.899994 119.899994 433 119.899994 L 424.299988 119.899994 C 423.399994 119.899994 422.700012 119.200012 422.700012 118.299988 L 422.700012 117 Z M 409.299988 109.5 C 416.700012 109.5 422.799988 103.5 422.799988 96.100006 C 422.799988 88.700012 416.799988 82.700012 409.299988 82.700012 C 401.899994 82.700012 395.799988 88.700012 395.799988 96.100006 C 395.799988 103.5 401.899994 109.5 409.299988 109.5 Z M 479.700012 75.100006 L 479.700012 73.899994 C 479.700012 73 480.399994 72.299988 481.299988 72.299988 L 490 72.299988 C 490.899994 72.299988 491.600006 73 491.600006 73.899994 L 491.600006 118.200012 L 491.600006 118.200012 C 491.399994 132.200012 480 143.5 465.899994 143.5 C 462.200012 143.5 458.700012 142.700012 455.600006 141.299988 C 454.799988 140.899994 453.700012 140.299988 452.299988 139.5 C 451.399994 138.899994 450.899994 137.799988 451.299988 136.700012 L 454.100006 128.600006 C 454.399994 127.799988 455.299988 127.299988 456.100006 127.600006 C 456.299988 127.700012 456.5 127.799988 456.700012 127.899994 C 457.700012 128.899994 458.600006 129.5 459.399994 129.899994 C 461.299988 130.899994 463.600006 131.5 465.899994 131.5 C 473.399994 131.5 479.5 125.5 479.700012 118.100006 L 479.700012 118.100006 L 479.700012 117 C 475.600006 119.799988 470.700012 121.399994 465.5 121.399994 C 451.5 121.399994 440.200012 110.100006 440.200012 96.100006 C 440.200012 82.100006 451.5 70.799988 465.5 70.799988 C 470.799988 70.700012 475.700012 72.399994 479.700012 75.100006 Z M 466.299988 109.5 C 473.700012 109.5 479.799988 103.5 479.799988 96.100006 C 479.799988 88.700012 473.799988 82.700012 466.299988 82.700012 C 458.799988 82.700012 452.799988 88.700012 452.799988 96.100006 C 452.799988 103.5 458.799988 109.5 466.299988 109.5 Z M 522.400024 121.399994 C 508.400024 121.399994 497.099976 110.100006 497.099976 96.100006 C 497.099976 82.100006 508.400024 70.799988 522.400024 70.799988 C 536.400024 70.799988 547.700012 82.100006 547.700012 96.100006 C 547.799988 110 536.400024 121.399994 522.400024 121.399994 Z M 522.400024 109.5 C 529.799988 109.5 535.900024 103.5 535.900024 96.100006 C 535.900024 88.700012 529.900024 82.700012 522.400024 82.700012 C 515 82.700012 508.900024 88.700012 508.900024 96.100006 C 508.900024 103.5 515 109.5 522.400024 109.5 Z M 600 93.700012 L 600 118.200012 C 600 119.100006 599.299988 119.799988 598.400024 119.799988 L 588.900024 119.799988 C 588 119.799988 587.299988 119.100006 587.299988 118.200012 L 587.299988 94.5 L 587.299988 94.5 C 587.299988 94.200012 587.299988 94 587.299988 93.700012 C 587.299988 87.600006 582.299988 82.600006 576.200012 82.600006 C 570.099976 82.600006 565.099976 87.600006 565.099976 93.700012 C 565.099976 94 565.099976 94.200012 565.099976 94.5 L 565.099976 94.5 L 565.099976 118.200012 C 565.099976 119.100006 564.400024 119.799988 563.5 119.799988 L 554.799988 119.799988 C 553.900024 119.799988 553.200012 119.100006 553.200012 118.200012 L 553.200012 73.899994 C 553.200012 73 553.900024 72.299988 554.799988 72.299988 L 563.5 72.299988 C 564.400024 72.299988 565.099976 73 565.099976 73.899994 L 565.099976 74 C 568.599976 71.899994 572.599976 70.700012 577 70.700012 C 589.700012 70.700012 600 81 600 93.700012 Z"/>
</svg>
